<svg width="64" height="23" viewBox="0 0 64 23" fill="none" xmlns="http://www.w3.org/2000/svg">
<g clip-path="url(#clip0_0_7597)">
<path d="M25.3501 17.2822C27.8984 17.2822 29.791 15.8628 30.1895 13.6631H28.6704C28.2886 15.0493 27.0186 15.9043 25.3501 15.9043C23.0425 15.9043 21.5981 14.02 21.5981 11.0151C21.5981 8.01025 23.0425 6.11768 25.3418 6.11768C26.9937 6.11768 28.272 7.08887 28.6704 8.63281H30.1895C29.8325 6.3252 27.8652 4.73975 25.3418 4.73975C22.0879 4.73975 20.0625 7.14697 20.0625 11.0151C20.0625 14.875 22.0962 17.2822 25.3501 17.2822ZM32.1967 17H33.6244V11.7041C33.6244 10.1934 34.5043 9.18066 36.1063 9.18066C37.4594 9.18066 38.1732 9.96924 38.1732 11.5547V17H39.601V11.2061C39.601 9.10596 38.4057 7.89404 36.5131 7.89404C35.1435 7.89404 34.2055 8.4751 33.7572 9.46289H33.6244V4.49902H32.1967V17ZM44.2977 17.1577C45.493 17.1577 46.4725 16.6348 47.0535 15.6802H47.1863V17H48.5477V10.874C48.5477 9.01465 47.3274 7.89404 45.1443 7.89404C43.2352 7.89404 41.824 8.84033 41.6331 10.2764H43.0774C43.2767 9.5708 44.0237 9.16406 45.0945 9.16406C46.431 9.16406 47.1199 9.77002 47.1199 10.874V11.6875L44.5384 11.8452C42.4549 11.9697 41.2762 12.8911 41.2762 14.4932C41.2762 16.1284 42.5628 17.1577 44.2977 17.1577ZM44.5633 15.9043C43.5257 15.9043 42.7537 15.373 42.7537 14.46C42.7537 13.5635 43.3514 13.0903 44.7127 12.999L47.1199 12.8413V13.6631C47.1199 14.9414 46.0325 15.9043 44.5633 15.9043ZM51.385 5.73584V8.05176H49.9406V9.24707H51.385V14.6758C51.385 16.3857 52.1237 17.0664 53.9665 17.0664C54.2487 17.0664 54.5227 17.0332 54.8049 16.9834V15.7798C54.5393 15.8047 54.3981 15.813 54.1408 15.813C53.2111 15.813 52.8127 15.3647 52.8127 14.3105V9.24707H54.8049V8.05176H52.8127V5.73584H51.385ZM56.1896 10.5005C56.1896 11.7954 56.9532 12.5176 58.63 12.9243L60.1656 13.2979C61.1202 13.5303 61.5851 13.9453 61.5851 14.5596C61.5851 15.3813 60.7218 15.9541 59.5182 15.9541C58.3727 15.9541 57.6588 15.4727 57.4181 14.7173H55.9488C56.1065 16.2031 57.4762 17.1577 59.4684 17.1577C61.5021 17.1577 63.0543 16.0537 63.0543 14.4517C63.0543 13.165 62.2408 12.4346 60.5558 12.0278L59.1778 11.6958C58.1236 11.4385 57.6256 11.0566 57.6256 10.4424C57.6256 9.64551 58.4557 9.10596 59.5182 9.10596C60.5973 9.10596 61.2945 9.5791 61.4855 10.293H62.8966C62.7057 8.82373 61.4024 7.89404 59.5265 7.89404C57.6256 7.89404 56.1896 9.01465 56.1896 10.5005Z" fill="#037EE5"/>
<path d="M3.60206 12.1885L11.4062 4.23933C11.9866 3.64818 11.9778 2.69847 11.3867 2.1181C10.7955 1.53773 9.84583 1.54647 9.26546 2.13762L0.429623 11.1376C-0.143208 11.7211 -0.143208 12.6559 0.429623 13.2393L9.26546 22.2393C9.84583 22.8305 10.7955 22.8392 11.3867 22.2589C11.9778 21.6785 11.9866 20.7288 11.4062 20.1376L3.60206 12.1885Z" fill="#007AFF"/>
</g>
<defs>
<clipPath id="clip0_0_7597">
<rect width="64" height="23" fill="white"/>
</clipPath>
</defs>
</svg>
