<svg width="291" height="33" viewBox="0 0 291 33" fill="none" xmlns="http://www.w3.org/2000/svg">
<rect x="0.5" y="0.5" width="290" height="32" rx="16" fill="white" stroke="#D1D1D6"/>
<path d="M26.3311 22V10.022H24.5962L20.4956 20.0161H20.3628L16.2622 10.022H14.5273V22H15.9219V12.8525H16.0215L19.7983 22H21.0601L24.8369 12.8525H24.9365V22H26.3311ZM34.7299 19.6841C34.3563 20.4727 33.5761 20.896 32.4223 20.896C30.9032 20.896 29.9154 19.7754 29.8407 18.0073V17.9409H36.2738V17.3931C36.2738 14.6123 34.8046 12.894 32.3891 12.894C29.932 12.894 28.3549 14.7202 28.3549 17.5342C28.3549 20.3647 29.9071 22.1577 32.3891 22.1577C34.348 22.1577 35.7426 21.2114 36.1576 19.6841H34.7299ZM32.3725 14.1558C33.7919 14.1558 34.7382 15.2017 34.7714 16.7871H29.8407C29.9486 15.2017 30.9447 14.1558 32.3725 14.1558ZM37.9075 15.5005C37.9075 16.7954 38.6712 17.5176 40.3479 17.9243L41.8836 18.2979C42.8382 18.5303 43.303 18.9453 43.303 19.5596C43.303 20.3813 42.4397 20.9541 41.2361 20.9541C40.0906 20.9541 39.3768 20.4727 39.136 19.7173H37.6668C37.8245 21.2031 39.1941 22.1577 41.1863 22.1577C43.22 22.1577 44.7723 21.0537 44.7723 19.4517C44.7723 18.165 43.9588 17.4346 42.2737 17.0278L40.8958 16.6958C39.8416 16.4385 39.3436 16.0566 39.3436 15.4424C39.3436 14.6455 40.1736 14.106 41.2361 14.106C42.3152 14.106 43.0125 14.5791 43.2034 15.293H44.6146C44.4236 13.8237 43.1204 12.894 41.2444 12.894C39.3436 12.894 37.9075 14.0146 37.9075 15.5005ZM46.2399 15.5005C46.2399 16.7954 47.0036 17.5176 48.6804 17.9243L50.216 18.2979C51.1706 18.5303 51.6354 18.9453 51.6354 19.5596C51.6354 20.3813 50.7722 20.9541 49.5686 20.9541C48.423 20.9541 47.7092 20.4727 47.4685 19.7173H45.9992C46.1569 21.2031 47.5266 22.1577 49.5187 22.1577C51.5524 22.1577 53.1047 21.0537 53.1047 19.4517C53.1047 18.165 52.2912 17.4346 50.6062 17.0278L49.2282 16.6958C48.174 16.4385 47.676 16.0566 47.676 15.4424C47.676 14.6455 48.5061 14.106 49.5686 14.106C50.6477 14.106 51.3449 14.5791 51.5358 15.293H52.947C52.7561 13.8237 51.4528 12.894 49.5769 12.894C47.676 12.894 46.2399 14.0146 46.2399 15.5005ZM57.4361 22.1577C58.6314 22.1577 59.6109 21.6348 60.192 20.6802H60.3248V22H61.6861V15.874C61.6861 14.0146 60.4659 12.894 58.2828 12.894C56.3736 12.894 54.9625 13.8403 54.7716 15.2764H56.2159C56.4151 14.5708 57.1622 14.1641 58.233 14.1641C59.5694 14.1641 60.2584 14.77 60.2584 15.874V16.6875L57.6769 16.8452C55.5934 16.9697 54.4146 17.8911 54.4146 19.4932C54.4146 21.1284 55.7013 22.1577 57.4361 22.1577ZM57.7018 20.9043C56.6642 20.9043 55.8922 20.373 55.8922 19.46C55.8922 18.5635 56.4898 18.0903 57.8512 17.999L60.2584 17.8413V18.6631C60.2584 19.9414 59.171 20.9043 57.7018 20.9043ZM67.6113 25.4365C70.0518 25.4365 71.5957 24.1582 71.5957 22.1577V13.0518H70.2344V14.4712H70.1016C69.5869 13.5083 68.4829 12.894 67.2295 12.894C64.9302 12.894 63.4775 14.7119 63.4775 17.3931C63.4775 20.0742 64.9136 21.8672 67.2295 21.8672C68.458 21.8672 69.4707 21.311 70.0352 20.3232H70.168V22.083C70.168 23.4028 69.2134 24.1914 67.6113 24.1914C66.3247 24.1914 65.5278 23.7183 65.3701 22.9878H63.8594C64.0752 24.4653 65.4531 25.4365 67.6113 25.4365ZM67.5449 20.6055C65.8848 20.6055 64.9551 19.3438 64.9551 17.3931C64.9551 15.4424 65.8848 14.1807 67.5449 14.1807C69.1968 14.1807 70.2012 15.4424 70.2012 17.3931C70.2012 19.3438 69.2051 20.6055 67.5449 20.6055ZM79.8119 19.6841C79.4384 20.4727 78.6581 20.896 77.5043 20.896C75.9853 20.896 74.9975 19.7754 74.9228 18.0073V17.9409H81.3559V17.3931C81.3559 14.6123 79.8866 12.894 77.4711 12.894C75.0141 12.894 73.4369 14.7202 73.4369 17.5342C73.4369 20.3647 74.9892 22.1577 77.4711 22.1577C79.4301 22.1577 80.8246 21.2114 81.2396 19.6841H79.8119ZM77.4545 14.1558C78.8739 14.1558 79.8202 15.2017 79.8534 16.7871H74.9228C75.0307 15.2017 76.0268 14.1558 77.4545 14.1558Z" fill="#AEAEB2"/>
<path fill-rule="evenodd" clip-rule="evenodd" d="M272.359 6C274.523 6 282.896 14.3901 282.977 16.3906C282.712 21.6758 278.352 25.9823 273 25.9823C267.477 25.9823 263 21.5052 263 15.9823C263 10.7403 267.226 6.42373 272.359 6ZM271.573 7.60187C267.558 8.28019 264.5 11.7741 264.5 15.9823C264.5 20.6767 268.306 24.4823 273 24.4823C277.208 24.4823 280.702 21.4244 281.381 17.4095L281.442 17.3832C280.539 17.7689 279.544 17.9823 278.5 17.9823C274.358 17.9823 271 14.6245 271 10.4823C271 9.56011 271.166 8.67677 271.471 7.86072L271.573 7.60187ZM273.012 8.0525L273.145 7.7726L273.274 7.83794C273.453 7.93193 273.659 8.0533 273.886 8.20066C274.822 8.80933 275.895 9.8935 277.038 11.0481C277.189 11.2008 277.341 11.3547 277.495 11.5089C277.648 11.6628 277.8 11.8152 277.951 11.9661C279.096 13.1114 280.155 14.1706 280.758 15.1093C280.94 15.3936 281.082 15.6456 281.18 15.8522C280.358 16.2637 279.447 16.4823 278.5 16.4823C275.186 16.4823 272.5 13.796 272.5 10.4823C272.5 9.63084 272.677 8.80761 273.012 8.0525Z" fill="#858E99"/>
</svg>
