<svg width="14" height="8" viewBox="0 0 14 8" fill="none" xmlns="http://www.w3.org/2000/svg">
<path fill-rule="evenodd" clip-rule="evenodd" d="M13.1336 0.155212L6.6336 6.95521L6.57835 7.02452C6.45066 7.21854 6.4799 7.47939 6.65978 7.64164C6.86213 7.82418 7.1785 7.81279 7.3664 7.61622L13.8664 0.816221L13.9216 0.746918C14.0493 0.552893 14.0201 0.292039 13.8402 0.129788C13.6379 -0.0527447 13.3215 -0.0413622 13.1336 0.155212ZM9.63521 0.153544L3.43573 6.5784L0.862149 3.95215L0.794346 3.8943C0.602859 3.75855 0.333042 3.77083 0.155256 3.93524C-0.0447525 4.1202 -0.0525441 4.42764 0.137853 4.62194L3.07639 7.62061L3.14702 7.68047C3.34667 7.82 3.62866 7.7989 3.80333 7.61789L10.3648 0.817888L10.4204 0.748838C10.549 0.555398 10.521 0.294414 10.3419 0.131344C10.1405 -0.05211 9.82405 -0.0421705 9.63521 0.153544Z" fill="#21C004"/>
</svg>
