<svg width="67" height="12" viewBox="0 0 67 12" fill="none" xmlns="http://www.w3.org/2000/svg">
<path fill-rule="evenodd" clip-rule="evenodd" d="M44.8334 0.669312C43.4527 0.669312 42.3334 1.7886 42.3334 3.16931V8.66931C42.3334 10.05 43.4527 11.1693 44.8334 11.1693H60.802H61.8334C63.2141 11.1693 64.3334 10.05 64.3334 8.66931V3.16931C64.3334 1.7886 63.2141 0.669312 61.8334 0.669312H44.8334ZM45.3334 1.66931C44.2288 1.66931 43.3334 2.56474 43.3334 3.66931V8.16931C43.3334 9.27388 44.2288 10.1693 45.3334 10.1693H59.802H61.3334C62.4379 10.1693 63.3334 9.27388 63.3334 8.16931V3.66931C63.3334 2.56474 62.4379 1.66931 61.3334 1.66931H45.3334Z" fill="#ABABAB"/>
<path fill-rule="evenodd" clip-rule="evenodd" d="M65.3334 8.04329C66.196 7.82127 66.8334 7.03822 66.8334 6.1063C66.8334 5.17438 66.196 4.39133 65.3334 4.16931V8.04329Z" fill="#ABABAB"/>
<rect x="44.3334" y="2.66931" width="18" height="6.5" rx="1" fill="#060606"/>
<path fill-rule="evenodd" clip-rule="evenodd" d="M29.6637 2.27733C31.8796 2.27742 34.0108 3.12886 35.6167 4.65566C35.7376 4.77354 35.9309 4.77205 36.05 4.65233L37.206 3.48566C37.2663 3.42494 37.3 3.34269 37.2995 3.25711C37.299 3.17153 37.2644 3.08967 37.2034 3.02966C32.9883 -1.00989 26.3385 -1.00989 22.1234 3.02966C22.0623 3.08963 22.0277 3.17146 22.0271 3.25704C22.0265 3.34262 22.0601 3.42489 22.1204 3.48566L23.2767 4.65233C23.3957 4.77223 23.5892 4.77372 23.71 4.65566C25.3162 3.12876 27.4476 2.27732 29.6637 2.27733V2.27733ZM29.6637 6.07299C30.8812 6.07292 32.0552 6.52545 32.9577 7.34266C33.0798 7.45864 33.272 7.45613 33.391 7.33699L34.5457 6.17033C34.6065 6.10913 34.6403 6.02612 34.6394 5.93985C34.6385 5.85359 34.6031 5.77127 34.541 5.71133C31.7928 3.15494 27.5369 3.15494 24.7887 5.71133C24.7266 5.77127 24.6912 5.85363 24.6904 5.93992C24.6896 6.02621 24.7234 6.10922 24.7844 6.17033L25.9387 7.33699C26.0577 7.45613 26.25 7.45864 26.372 7.34266C27.2739 6.52599 28.447 6.0735 29.6637 6.07299V6.07299ZM31.8827 8.85733C31.9445 8.79672 31.9785 8.71332 31.9767 8.62681C31.9749 8.54031 31.9375 8.45836 31.8734 8.40033C30.5978 7.32144 28.7296 7.32144 27.454 8.40033C27.3898 8.45831 27.3524 8.54023 27.3505 8.62674C27.3487 8.71325 27.3827 8.79668 27.4444 8.85733L29.442 10.873C29.5006 10.9322 29.5804 10.9656 29.6637 10.9656C29.747 10.9656 29.8268 10.9322 29.8854 10.873L31.8827 8.85733Z" fill="#060606"/>
<path fill-rule="evenodd" clip-rule="evenodd" d="M1 7.0026H2C2.55228 7.0026 3 7.45032 3 8.0026V10.0026C3 10.5549 2.55228 11.0026 2 11.0026H1C0.447715 11.0026 0 10.5549 0 10.0026V8.0026C0 7.45032 0.447715 7.0026 1 7.0026V7.0026ZM5.66667 5.0026H6.66667C7.21895 5.0026 7.66667 5.45032 7.66667 6.0026V10.0026C7.66667 10.5549 7.21895 11.0026 6.66667 11.0026H5.66667C5.11438 11.0026 4.66667 10.5549 4.66667 10.0026V6.0026C4.66667 5.45032 5.11438 5.0026 5.66667 5.0026ZM10.3333 2.66927H11.3333C11.8856 2.66927 12.3333 3.11699 12.3333 3.66927V10.0026C12.3333 10.5549 11.8856 11.0026 11.3333 11.0026H10.3333C9.78105 11.0026 9.33333 10.5549 9.33333 10.0026V3.66927C9.33333 3.11699 9.78105 2.66927 10.3333 2.66927ZM15 0.335938H16C16.5523 0.335937 17 0.783653 17 1.33594V10.0026C17 10.5549 16.5523 11.0026 16 11.0026H15C14.4477 11.0026 14 10.5549 14 10.0026V1.33594C14 0.783653 14.4477 0.335938 15 0.335938V0.335938Z" fill="#060606"/>
</svg>
